<?xml version="1.0" encoding="utf-8"?>
<svg xmlns="http://www.w3.org/2000/svg" version="1.1" x="0px" y="0px" style="" viewBox="117.076 27.695 97.088 21.201">
  <g transform="matrix(1, 0, 0, 1, 115.769295, -11.66434)">
    <g>
      <path d="M18.4,47.4l-4.7-0.5l-2-4.3c-0.1-0.3-0.5-0.5-0.8-0.5s-0.7,0.2-0.8,0.5l-2,4.3l-4.7,0.5c-0.4,0-0.6,0.3-0.8,0.6     c-0.1,0.3,0,0.7,0.2,0.9l3.5,3.2l-1,4.7c-0.1,0.3,0.1,0.7,0.4,0.9C5.9,57.9,6.1,58,6.2,58c0.2,0,0.3,0,0.4-0.1l4.2-2.4l4.1,2.4     c0.3,0.2,0.7,0.2,1-0.1c0.3-0.2,0.4-0.6,0.4-0.9l-1-4.7l3.5-3.2c0.3-0.2,0.4-0.6,0.2-0.9C19,47.7,18.7,47.5,18.4,47.4z" style="fill: rgb(184, 147, 95);"/>
      <path d="M37.9,47.4l-4.7-0.5l-2-4.3c-0.1-0.3-0.5-0.5-0.8-0.5c-0.4,0-0.7,0.2-0.8,0.5l-2,4.3l-4.7,0.5c-0.4,0-0.6,0.3-0.8,0.6     c-0.1,0.3,0,0.7,0.2,0.9l3.5,3.2l-1,4.7c-0.1,0.3,0.1,0.7,0.4,0.9c0.2,0.1,0.3,0.2,0.5,0.2c0.2,0,0.3,0,0.4-0.1l4.2-2.4l4.1,2.4     c0.3,0.2,0.7,0.2,1-0.1c0.3-0.2,0.4-0.6,0.4-0.9l-1-4.7l3.5-3.2c0.3-0.2,0.4-0.6,0.2-0.9C38.6,47.7,38.3,47.5,37.9,47.4z" style="fill: rgb(184, 147, 95);"/>
      <path d="M57.7,47.5c0,0-0.1,0-0.1,0l-4.7-0.5l-2-4.3C50.7,42.2,50.4,42,50,42c-0.4,0-0.7,0.2-0.8,0.5l-2,4.3l-4.7,0.5     c-0.4,0-0.6,0.3-0.8,0.6c-0.1,0.3,0,0.7,0.2,0.9l3.5,3.2l-1,4.7c-0.1,0.3,0.1,0.7,0.4,0.9c0.2,0.1,0.3,0.2,0.5,0.2     c0.2,0,0.3,0,0.4-0.1l4.2-2.4l4.1,2.4c0.3,0.2,0.7,0.2,1-0.1c0.3-0.2,0.4-0.6,0.4-0.9l-1-4.7L58,49c0.2-0.2,0.3-0.4,0.3-0.7     C58.3,47.9,58.1,47.6,57.7,47.5z" style="fill: rgb(184, 147, 95);"/>
      <path d="M77.1,47.4l-4.7-0.5l-2-4.3c-0.1-0.3-0.5-0.5-0.8-0.5c-0.4,0-0.7,0.2-0.8,0.5l-2,4.3l-4.7,0.5c-0.5,0-0.8,0.4-0.8,0.9     c0,0.3,0.1,0.5,0.3,0.7l3.5,3.2l-1,4.7c-0.1,0.3,0.1,0.7,0.4,0.9c0.2,0.1,0.3,0.2,0.5,0.2c0.2,0,0.3,0,0.4-0.1l4.2-2.4l4.1,2.4     c0.3,0.2,0.7,0.2,1-0.1c0.3-0.2,0.4-0.6,0.4-0.9l-1-4.7l3.5-3.2c0.3-0.2,0.4-0.6,0.2-0.9C77.8,47.7,77.5,47.5,77.1,47.4z" style="fill: rgb(184, 147, 95);"/>
      <path d="M97.5,48.1c-0.1-0.3-0.4-0.6-0.8-0.6L92,46.9l-2-4.3c-0.1-0.3-0.5-0.5-0.8-0.5c-0.4,0-0.7,0.2-0.8,0.5l-2,4.3l-4.7,0.5     c-0.4,0-0.6,0.3-0.8,0.6c-0.1,0.3,0,0.7,0.2,0.9l3.5,3.2l-1,4.7c-0.1,0.3,0.1,0.7,0.4,0.9c0.2,0.1,0.3,0.2,0.5,0.2     c0.2,0,0.3,0,0.4-0.1l4.2-2.4l4.1,2.4c0.3,0.2,0.7,0.2,1-0.1c0.3-0.2,0.4-0.6,0.4-0.9l-1-4.7l3.5-3.2     C97.5,48.8,97.6,48.4,97.5,48.1z" style="fill: rgb(184, 147, 95);"/>
    </g>
  </g>
</svg>