<svg xmlns="http://www.w3.org/2000/svg" id="Layer_2" data-name="Layer 2" viewBox="0 0 129.28 246.83">
  <defs>
    <style>
      .cls-1 {
        fill: #b8935f;
        stroke-width: 0px;
      }
    </style>
  </defs>
  <g id="Layer_1-2" data-name="Layer 1">
    <path class="cls-1" d="m127.64,118.18c-1.02.66-2.41,1.57-3.95,2.62-3.03,2.14-6.87,4.77-9.24,7.33-.15.16-.31.32-.43.48-.15.16-.28.32-.42.48-.27.32-.52.63-.74.96-.25.35-.47.69-.67,1.04.06-.48.13-.97.2-1.5.02-.21.05-.42.08-.64l.03-.25c.03-.23.05-.47.07-.72l.08-1.08c.03-.42.06-.85.1-1.27.22-2.14.28-4.4.33-6.59.02-.73.04-1.46.06-2.18v-.07s0-.07,0-.07c-.02-.73-.04-1.46-.06-2.18-.05-2.19-.11-4.45-.33-6.56-.04-.43-.07-.84-.1-1.25l-.02-.25c.69-.19,1.9-.58,3.32-1.31,1.11-.56,2.29-1.31,3.44-2.34,1.14-1.03,2.23-2.33,3.11-3.97.7-1.24,1.12-2.65,1.46-4.13.18-.75.3-1.51.42-2.27.11-.77.21-1.55.23-2.3.05-1.24.05-2.44.02-3.55-.03-1.11-.07-2.13-.2-2.99-.22-1.71-.43-2.81-.43-2.81,0,0-1.34,1.5-3.13,3.65-.87,1.07-1.93,2.32-2.96,3.63-1.04,1.31-2.08,2.69-2.99,4.04-.17.26-.35.55-.53.81-.19.28-.36.55-.52.81-.34.54-.65,1.08-.93,1.59-.64,1.21-1.03,2.36-1.28,3.44-.03-.15-.06-.32-.09-.47-.06-.33-.12-.64-.18-1-.09-.51-.19-.99-.27-1.42l-.16-.84c-.12-.69-.2-1.17-.31-1.58-.07-.33-.12-.54-.13-.55l-.61-2.56c-.12-.49-.25-1.04-.39-1.62-.1-.45-.24-.9-.39-1.38l-.25-.86c-.07-.25-.15-.51-.22-.76-.88-3.2-2.19-6.94-3.74-10.71.61-.37,1.65-1.07,2.78-2.13.89-.84,1.83-1.9,2.66-3.2.79-1.3,1.45-2.84,1.8-4.64.16-.9.26-1.86.28-2.85-.01-.97-.1-1.98-.24-2.99-.13-1-.32-2.02-.53-2.99-.1-.5-.25-.98-.38-1.44-.14-.46-.27-.91-.42-1.35-.29-.88-.59-1.7-.87-2.45-.29-.74-.56-1.41-.81-1.94-.51-1.07-.86-1.71-.86-1.71,0,0-.31.63-.78,1.71-.24.53-.51,1.18-.82,1.89-.32.72-.66,1.53-1.03,2.37-.71,1.7-1.48,3.6-2.14,5.48-.16.47-.32.94-.48,1.41-.16.47-.33.95-.46,1.41-.28.93-.51,1.83-.66,2.69-.16.86-.23,1.67-.23,2.42-.01.41-.01.8,0,1.19-.04-.08-.08-.17-.12-.25l-.76-1.48c-.69-1.3-1.36-2.57-2.06-3.86l-.21-.36c-.64-1.08-1.25-2.13-1.87-3.14-.12-.2-.24-.4-.36-.6-.21-.36-.42-.72-.65-1.05l-.96-1.44c-.62-.92-1.18-1.77-1.69-2.55-.33-.48-.65-.91-.95-1.3-.17-.23-.33-.44-.49-.66l-1.26-1.71s-.11-.14-.31-.4c-.06-.07-.12-.16-.19-.26-.16-.22-.35-.48-.56-.75.48-.52,1.28-1.46,2.07-2.75.62-1.03,1.21-2.29,1.63-3.75.2-.73.36-1.51.47-2.34.04-.41.08-.85.08-1.28s-.01-.87-.06-1.32c-.19-1.8-.75-3.76-1.55-5.64-.84-1.85-1.87-3.66-2.9-5.24-1.05-1.53-2.08-2.84-2.85-3.77-.39-.46-.7-.82-.92-1.07-.21-.26-.36-.38-.36-.38,0,0-.11.7-.29,1.85-.18,1.17-.4,2.78-.62,4.59-.21,1.82-.39,3.8-.54,5.83-.14,2.01-.17,3.97.01,5.68.12,1.3.37,2.46.71,3.48-3.21-3.55-6.91-7.19-10.37-10.2-2.44-2.14-5.2-4.31-8.24-6.51.07-.13.14-.28.22-.46.31-.66.66-1.59.97-2.75.29-1.15.51-2.51.49-4.02-.02-.76-.09-1.56-.24-2.38-.16-.81-.38-1.69-.74-2.51-.53-1.28-1.3-2.57-2.21-3.82-.22-.32-.47-.62-.7-.93-.13-.16-.25-.31-.38-.46-.13-.15-.26-.29-.39-.44-.52-.57-1.08-1.13-1.63-1.67-.9-.88-1.83-1.7-2.7-2.43-.9-.7-1.74-1.31-2.46-1.81-1.46-1.02-2.44-1.61-2.44-1.61,0,0,.25,1.97.71,4.71.22,1.37.51,2.92.84,4.52.31,1.63.67,3.31,1.1,4.88.35,1.27.75,2.46,1.18,3.54.48,1.23,1.07,2.26,1.69,3.14l-.28-.17c-1.2-.74-2.22-1.38-3.04-1.85-1.16-.65-1.82-1.01-1.82-1.01l-1.79-.99c-.26-.15-.57-.32-.9-.5l-.28-.15c-.14-.07-.29-.15-.45-.22-.12-.56-.3-1.26-.61-2.05-.56-1.4-1.21-2.52-2.08-3.57-1.12-1.29-2.48-2.38-4.02-3.22-1.43-.8-3.25-1.45-5.76-2.04-1.02-.23-2.01-.43-2.95-.57-.49-.08-.97-.15-1.47-.21-.48-.06-.96-.1-1.43-.14-1.96-.16-3.59-.18-4.6-.17-1.15.01-1.84.04-1.84.04l-3.56.14,1.98,2.97c.03.05.35.53.91,1.23.32.42.74.91,1.22,1.46.34.39.71.82,1.12,1.31.58.66,1.11,1.22,1.62,1.72.36.35.73.71,1.11,1.06l.68.64c1.42,1.3,2.91,2.35,4.38,3.11,3.24,1.77,6.83,2.27,9.24,2.38,1.13.06,2.1.04,2.76,0,.14.07.28.13.38.18l5.59,3.03c.72.41,1.61.97,2.66,1.62.42.26.87.54,1.33.82-1.33-.38-2.9-.57-4.65-.41-1.11.12-2.28.39-3.45.74-1.54.46-3.05,1.06-4.49,1.73-1.44.69-2.78,1.43-3.9,2.12-2.27,1.37-3.74,2.49-3.74,2.49,0,0,.8.32,2.1.7.65.18,1.43.39,2.3.59.85.23,1.77.46,2.77.65,2.3.37,4.78.76,7.18.47.82-.11,1.59-.24,2.34-.43.75-.17,1.48-.42,2.16-.68,1.37-.52,2.61-1.16,3.65-1.8,1.04-.62,1.87-1.24,2.44-1.69.46-.37.73-.63.82-.71,2.93,2.1,5.58,4.19,7.91,6.24,3.59,3.13,7.42,6.94,10.66,10.59-.08-.05-.16-.11-.25-.16-1.14-.68-2.54-1.27-4.22-1.56-1.7-.28-3.65-.28-5.55-.12-.49.03-.97.09-1.44.14-.49.06-.97.14-1.44.23-.94.17-1.85.36-2.71.56-1.7.4-3.17.85-4.22,1.19-.51.17-.94.32-1.23.43-.28.11-.44.17-.44.17,0,0,.11.07.32.21.2.13.48.35.85.6.74.48,1.78,1.14,3.05,1.81,1.22.72,2.62,1.48,4.16,2.09.19.08.38.15.58.23.19.08.38.15.57.23.38.15.77.29,1.16.42.79.25,1.6.45,2.4.58,1.64.24,3.19.29,4.66.15,1.47-.14,2.83-.42,4.01-.76,2.31-.64,3.82-1.44,3.88-1.47.22.27.4.51.54.7l.19.26c.2.27.33.44.34.45l1.18,1.62c.12.17.26.35.4.54.28.38.61.8.92,1.27l.4.6c.39.58.81,1.21,1.28,1.93.31.45.63.92.93,1.38.19.3.38.61.56.93l.35.59c.41.7.84,1.42,1.29,2.16l.71,1.18c.27.51.55,1.03.83,1.56.38.72.77,1.45,1.14,2.14l.49.94c.15.33.3.65.45.94.11.24.22.48.33.72-.07-.08-.12-.15-.2-.23-.46-.48-.96-.96-1.56-1.4-.63-.43-1.31-.82-2.08-1.18-.78-.36-1.64-.67-2.53-.92-.44-.13-.89-.24-1.34-.36-.48-.1-.96-.18-1.44-.27-1.93-.31-3.89-.48-5.62-.53-1.72-.06-3.3.02-4.41.09-1.13.07-1.79.15-1.79.15,0,0,.33.41.93,1.05.14.16.31.33.49.53.17.19.36.4.55.62.4.42.85.91,1.36,1.4.5.5,1.06,1,1.63,1.52.57.53,1.17,1.05,1.8,1.56.64.5,1.31.98,2.02,1.42.69.44,1.38.85,2.12,1.19,1.48.67,3.01,1.08,4.48,1.32,1.44.25,2.82.34,4.03.32,2.43-.01,4.15-.41,4.15-.41,0,0,0,0,0,0,1.48,3.6,2.72,7.16,3.56,10.19l.45,1.53c.13.43.25.84.32,1.17l.02.11c.21.84.39,1.58.54,2.22.3,1.21.46,1.9.48,1.98,0,.02.04.17.12.51.05.18.09.42.14.71l.12.65c.09.43.18.93.28,1.48l.13.71c.04.25.09.51.15.78.1.54.2,1.11.28,1.72-.05-.1-.08-.21-.13-.31-.59-1.17-1.52-2.36-2.77-3.46-.82-.71-1.75-1.39-2.85-1.99-1.38-.78-2.89-1.47-4.36-2.04-.74-.29-1.47-.55-2.16-.78-.71-.24-1.42-.43-2.06-.6-2.6-.7-4.47-1-4.47-1,0,0,.32.77.92,1.95.15.29.33.6.5.95.16.34.34.71.54,1.1.39.75.86,1.57,1.4,2.39.29.45.6.93.95,1.44.32.49.66.97,1.03,1.43.37.47.76.92,1.17,1.35.21.22.43.43.64.63.22.21.42.41.64.59,2.38,2.09,5.37,3.26,7.71,3.9,2.31.65,4.06.73,4.06.73,0,0,0-.02.02-.07.03.47.07.95.11,1.49.21,2.02.26,4.14.31,6.38.02.65.03,1.31.05,1.96-.02.65-.03,1.31-.05,1.96-.05,2.24-.1,4.36-.31,6.43l-.02.19c-.05.63-.1,1.24-.13,1.78l-.4,3.3c-.05.4-.11.81-.16,1.2-.02-.12-.03-.24-.05-.36-.12-.64-.29-1.31-.55-1.98-.26-.68-.58-1.38-1.07-2.07-.94-1.4-2.22-2.79-3.64-4.06-1.37-1.27-3-2.41-4.45-3.36-1.46-.95-2.78-1.7-3.75-2.22-.95-.51-1.56-.8-1.56-.8,0,0,.04.52.15,1.37.11.86.32,2.05.64,3.41.26,1.34.63,2.86,1.17,4.37.31.77.56,1.51.89,2.24.33.73.71,1.44,1.15,2.1.44.66.93,1.28,1.46,1.85.49.57,1.02,1.09,1.56,1.57,1.08.96,2.21,1.75,3.25,2.37,2.07,1.24,3.74,1.79,3.74,1.79,0,0,0-.01,0-.02l-.06.33c-.05.3-.09.54-.15.78-.06.25-.09.39-.1.41l-.02.1s-.16.71-.47,1.96c-.14.61-.31,1.35-.53,2.19l-.02.11c-.07.34-.18.7-.29,1.08l-.49,1.65c-1.09,3.95-2.88,8.8-4.97,13.49.01-.07.03-.14.04-.21.02-.17.04-.33.05-.49.01-.17.01-.34.01-.51-.01-.34-.03-.7-.06-1.06-.09-.73-.23-1.49-.47-2.27-.25-.79-.55-1.6-.95-2.41-.42-.82-.9-1.64-1.41-2.43-1.03-1.59-2.19-3.08-3.31-4.36-1.17-1.3-2.26-2.37-3.06-3.11-.79-.75-1.3-1.18-1.3-1.18,0,0-.1.51-.2,1.37-.04.42-.11.94-.16,1.52-.06.57-.14,1.22-.19,1.9-.11,1.36-.09,2.94-.06,4.51.03.79.11,1.6.24,2.39.07.4.14.79.24,1.18.09.39.18.77.28,1.14.46,1.5,1.15,2.86,1.94,4.08.39.6.82,1.18,1.25,1.71.43.52.84.99,1.24,1.41,1.63,1.72,3.07,2.69,3.07,2.69,0,0,.02-.02.03-.03-.3.56-.6,1.12-.89,1.67l-.67,1.28-.74,1.24c-.45.75-.89,1.48-1.3,2.18l-.23.38c-.23.39-.45.77-.69,1.13-.31.49-.63.95-.97,1.44-.43.66-.84,1.28-1.22,1.85l-.42.63c-.32.48-.64.9-.93,1.28-.14.19-.28.37-.41.54-.64.89-1.05,1.44-1.16,1.58-.06.07-.18.22-.33.44l-.23.31c-.16.22-.36.5-.64.83l-1.44,1.78c-.3.36-.61.73-.92,1.11l-.32.38c-.13.16-.28.34-.43.51.04-.08.08-.15.11-.22.49-1.22.81-2.65.81-4.3,0-.52-.01-1.07-.09-1.64-.08-.56-.18-1.15-.29-1.73-.33-1.52-.79-3.05-1.33-4.48-.13-.36-.27-.71-.41-1.06-.14-.34-.29-.69-.44-1.03-.31-.67-.62-1.3-.91-1.87-1.18-2.33-2.21-3.86-2.21-3.86,0,0-.39.74-.92,1.96-.12.31-.26.63-.4,1-.06.18-.14.37-.21.55-.08.19-.17.38-.25.58-.32.78-.64,1.66-.92,2.59-.19.53-.31,1.11-.49,1.65-.16.56-.29,1.13-.41,1.7-.24,1.14-.36,2.33-.35,3.48-.02,3.1,1.08,6,2.16,8.11,1.01,2,2.07,3.27,2.15,3.37-2.33,2.4-4.81,4.76-7.18,6.84-3.4,2.97-7.46,6.04-12.03,9.08.03-.03.06-.06.08-.1.82-1.04,1.56-2.33,2.04-3.89.25-.77.4-1.66.52-2.56.1-.9.16-1.84.17-2.77.03-.93-.01-1.86-.08-2.76-.05-.92-.17-1.82-.29-2.66-.26-1.67-.57-3.13-.81-4.17-.25-1.04-.43-1.67-.43-1.67,0,0-.38.38-.96,1.03-.28.34-.63.73-1,1.19-.37.46-.76,1-1.2,1.53-.88,1.08-1.76,2.4-2.58,3.78-.84,1.36-1.55,2.84-1.99,4.37-.91,2.99-.71,6.04-.27,8.36.21,1.16.48,2.12.71,2.8.19.59.33.94.37,1.03-.91.5-1.43.79-1.46.8,0,0-.66.37-1.77.98-.14.07-.28.15-.42.23-.16.09-.32.18-.46.25-.37.18-.76.38-1.14.57-.59.29-1.24.6-1.94.94l-.81.4c-4.91,2.3-9.48,4.11-13.7,5.47.04-.03.07-.05.11-.07.54-.38,1.08-.82,1.6-1.34.13-.14.26-.27.38-.41.13-.14.26-.29.37-.45.24-.32.48-.65.7-1.02.89-1.42,1.62-3.14,2.16-4.9.54-1.82.9-3.68,1.14-5.36.23-1.66.36-3.11.38-4.21.04-1.08.04-1.74.04-1.74,0,0-.47.28-1.18.79-.76.46-1.78,1.16-2.89,2.02-.28.22-.56.44-.86.68-.28.23-.59.46-.9.71-.6.48-1.2,1.01-1.79,1.58-1.15,1.15-2.27,2.33-3.13,3.68-.41.67-.78,1.37-1.07,2.06-.16.35-.29.7-.41,1.06-.13.34-.25.68-.35,1.02-.41,1.35-.64,2.67-.76,3.84-.21,2.11-.06,3.69-.03,3.96l-1.34.37c-.44.12-.88.21-1.31.31l-.68.15c-.36.08-.71.16-1.07.23l-17.86,2.35c-.98.13-1.71.95-1.74,1.93L0,244.77c-.03,1.02.72,1.9,1.73,2.04.09.01.18.02.27.02.91,0,1.72-.62,1.94-1.52,3.09-12.65,16.5-16.84,17.97-17.26.14-.03.27-.06.41-.09.25-.06.51-.12.78-.18.46-.1.93-.21,1.38-.33l1.51-.41c.33.63.94,1.67,1.9,2.83,1.52,1.86,3.99,4.09,7.63,5.09,1.81.5,3.94.76,6.03.67,1.06-.02,2.1-.11,3.15-.22.51-.06,1.03-.12,1.53-.18.5-.08.98-.17,1.45-.27,1.89-.38,3.53-.82,4.72-1.16.59-.16,1.04-.35,1.37-.45.33-.12.49-.18.49-.18,0,0-.62-.36-1.67-.92-1.05-.56-2.54-1.38-4.22-2.25-1.68-.87-3.57-1.78-5.43-2.6-1.9-.87-3.8-1.64-5.53-2.11-.42-.11-.86-.21-1.26-.29-.21-.03-.42-.07-.62-.1-.2-.04-.4-.07-.59-.1-.37-.05-.72-.08-1.07-.11,4.04-1.36,8.41-3.13,13.06-5.31l2.76-1.36c.44-.21.85-.41,1.26-.62l.25-.13c.28-.15.54-.29.72-.4,1.15-.63,1.82-1.01,1.82-1.01.03-.02.66-.35,1.76-.97.1.1.21.22.33.34.53.52,1.29,1.23,2.28,1.91,1.99,1.39,4.95,2.82,8.78,2.93,1.87,0,3.94-.36,5.98-.92.26-.07.51-.15.76-.22.25-.08.5-.17.73-.27.5-.17.99-.36,1.47-.55.95-.39,1.87-.79,2.74-1.2.43-.21.86-.41,1.25-.61.39-.22.76-.43,1.12-.63.7-.41,1.31-.78,1.83-1.1,1.03-.64,1.64-1.06,1.64-1.06,0,0-.72-.2-1.9-.48-1.17-.28-2.82-.66-4.66-1.05-.93-.19-1.91-.38-2.9-.59-1.01-.2-2.05-.39-3.08-.55-1.02-.17-2.04-.31-3.03-.4-.99-.1-1.93-.14-2.84-.17-1.37-.02-2.58.11-3.66.33,4.36-2.97,8.22-5.92,11.5-8.79,2.55-2.22,5.2-4.75,7.68-7.32.62.37,1.72.97,3.2,1.49,2.32.8,5.55,1.38,9.27.46.7-.17,1.39-.43,2.08-.73.69-.29,1.39-.63,2.08-1,.69-.38,1.38-.79,2.05-1.22.17-.11.33-.22.49-.32.16-.12.32-.23.48-.35.31-.23.62-.46.93-.7,1.97-1.57,3.77-3.19,4.91-4.5,1.19-1.3,1.9-2.18,1.9-2.18,0,0-2.05.03-4.92.2-2.83.17-6.59.37-9.91.87-.68.1-1.32.21-1.96.34-.63.13-1.26.25-1.84.41-1.33.35-2.47.81-3.45,1.33.11-.13.22-.27.32-.39.16-.2.32-.4.53-.64.42-.52.81-1,1.15-1.41l.31-.38c.35-.41.61-.78.82-1.06l.19-.26c.15-.21.24-.33.3-.4,0,0,.45-.6,1.22-1.66.12-.17.26-.34.4-.53.32-.42.67-.89,1.04-1.44l.23-.35c.44-.66.92-1.39,1.45-2.17l.38-.57c.19-.28.38-.57.59-.89.22-.33.42-.68.63-1.03.12-.21.24-.41.38-.64.61-1,1.23-2.05,1.87-3.14l.23-.4c.48-.89.97-1.81,1.47-2.74l.28-.53c.69.19,1.93.46,3.51.57.62.04,1.29.05,2.01.02.7-.04,1.44-.12,2.21-.27,1.53-.31,3.17-.86,4.8-1.8.4-.24.81-.5,1.22-.78.39-.29.77-.6,1.14-.94.75-.66,1.49-1.38,2.2-2.15.33-.39.68-.78,1.01-1.17.17-.21.34-.41.49-.6.17-.2.31-.41.44-.61.59-.83,1.14-1.66,1.63-2.45.5-.8.94-1.56,1.32-2.26.39-.7.69-1.35.93-1.9.5-1.07.76-1.75.76-1.75,0,0-.71.21-1.84.59-1.15.37-2.73.9-4.5,1.53-1.81.61-3.8,1.34-5.69,2.12-.96.4-1.88.81-2.77,1.24-.91.42-1.76.85-2.54,1.31-.77.46-1.45.95-2.05,1.44-.3.25-.57.5-.84.76-.04.04-.07.07-.11.11,1.99-4.57,3.69-9.24,4.75-13.11.09-.34.19-.66.28-.98l.18-.59c.16-.51.3-.99.4-1.42l1-4.18c.03-.09.08-.29.13-.57.1-.38.18-.85.26-1.35.71,0,1.98-.05,3.54-.37,1.2-.25,2.59-.66,4-1.34.71-.34,1.42-.75,2.13-1.24.71-.49,1.36-1.06,2.01-1.74.63-.66,1.23-1.43,1.79-2.25.27-.41.55-.84.8-1.28.26-.44.51-.89.72-1.36.87-1.84,1.57-3.79,2.12-5.58.47-1.78.77-3.4.97-4.56.2-1.17.28-1.88.28-1.88,0,0-.63.38-1.64,1.03Z"/>
  </g>
</svg>