<svg xmlns="http://www.w3.org/2000/svg" id="Layer_2" data-name="Layer 2" viewBox="0 0 129.27 246.83">
  <defs>
    <style>
      .cls-1 {
        fill: #b8935f;
        stroke-width: 0px;
      }
    </style>
  </defs>
  <g id="Layer_1-2" data-name="Layer 1">
    <path class="cls-1" d="m128.82,227.47c-.03-.98-.76-1.8-1.74-1.93l-17.87-2.35-1.03-.23c-.24-.06-.49-.11-.74-.16-.43-.09-.86-.18-1.29-.3l-1.36-.37c.04-.29.21-1.86-.02-3.95-.12-1.17-.33-2.49-.74-3.84-.11-.34-.22-.69-.35-1.02-.12-.35-.26-.71-.41-1.06-.32-.69-.66-1.4-1.09-2.06-.85-1.35-1.97-2.53-3.12-3.68-.57-.57-1.18-1.1-1.79-1.58-.32-.25-.61-.48-.89-.71-.28-.24-.58-.47-.85-.68-1.13-.87-2.15-1.56-2.89-2.02-.74-.51-1.19-.79-1.19-.79,0,0-.01.65.03,1.74.03,1.1.14,2.54.38,4.21.24,1.67.59,3.54,1.13,5.36.54,1.76,1.28,3.48,2.17,4.9.2.36.44.7.69,1.02.11.16.24.31.37.45.12.14.24.28.37.41.52.52,1.08.96,1.62,1.34.06.04.12.07.18.11-4.18-1.34-8.8-3.19-13.74-5.5l-2.76-1.35c-.26-.13-.5-.25-.73-.37l-.37-.19c-.17-.09-.33-.18-.48-.26-.16-.09-.32-.18-.43-.23-1.13-.62-1.78-.99-1.8-1l-1.46-.8c.04-.1.2-.45.38-1.02.22-.68.49-1.63.71-2.8.43-2.32.63-5.37-.28-8.36-.42-1.53-1.14-3.01-1.99-4.37-.81-1.38-1.7-2.7-2.58-3.78-.44-.53-.82-1.07-1.2-1.53-.35-.46-.7-.86-.99-1.19-.57-.66-.95-1.03-.95-1.03,0,0-.2.62-.43,1.67-.26,1.04-.57,2.5-.81,4.17-.12.85-.24,1.75-.31,2.66-.05.9-.09,1.83-.06,2.76.01.93.06,1.87.17,2.77.12.9.27,1.78.52,2.56.48,1.56,1.21,2.85,2.04,3.89.03.04.06.07.09.1-4.6-3.07-8.65-6.13-12.04-9.09-2.36-2.06-4.83-4.42-7.18-6.84.09-.11,1.14-1.38,2.15-3.37,1.09-2.11,2.17-5.01,2.15-8.11.01-1.14-.11-2.34-.35-3.48-.11-.58-.26-1.14-.41-1.7-.17-.54-.3-1.12-.48-1.65-.28-.93-.61-1.81-.94-2.59-.09-.2-.17-.39-.24-.58-.09-.18-.15-.38-.23-.55-.13-.36-.27-.69-.4-1-.52-1.22-.92-1.96-.92-1.96,0,0-1.01,1.53-2.19,3.86-.3.58-.6,1.2-.91,1.87-.16.34-.31.69-.46,1.03-.14.34-.27.7-.41,1.06-.53,1.43-1.01,2.96-1.32,4.48-.13.59-.22,1.17-.31,1.73-.06.57-.09,1.11-.09,1.64,0,1.65.34,3.08.82,4.3.03.08.07.15.11.22-.15-.18-.31-.35-.44-.53l-.3-.37c-.18-.22-.36-.43-.53-.64l-.38-.46c-.38-.45-.71-.87-1.02-1.24l-.48-.59c-.31-.37-.54-.69-.71-.95l-.1-.14c-.17-.23-.29-.38-.35-.46l-1.16-1.57c-.15-.21-.31-.43-.49-.67-.26-.35-.55-.75-.85-1.17l-1.67-2.5c-.3-.45-.62-.92-.96-1.45-.24-.35-.45-.72-.68-1.11l-.22-.37c-.44-.73-.89-1.48-1.35-2.25l-.67-1.11-1.57-2.96s1.45-.97,3.07-2.68c.41-.42.82-.89,1.24-1.41.43-.53.86-1.11,1.26-1.71.78-1.22,1.49-2.58,1.93-4.08.11-.37.19-.75.29-1.14.09-.39.17-.79.24-1.18.12-.79.21-1.59.23-2.39.02-1.57.05-3.15-.06-4.51-.05-.69-.12-1.33-.2-1.9-.04-.58-.1-1.1-.15-1.52-.1-.86-.21-1.37-.21-1.37,0,0-.51.43-1.3,1.18-.79.74-1.89,1.82-3.05,3.11-1.12,1.28-2.29,2.78-3.31,4.36-.52.79-.99,1.61-1.41,2.43-.4.81-.72,1.62-.95,2.41-.25.78-.39,1.55-.47,2.27-.05.36-.07.72-.07,1.06,0,.17,0,.35.01.51.01.16.03.33.06.49.01.09.03.17.04.25-2.1-4.69-3.89-9.56-4.99-13.54-.15-.53-.31-1.05-.46-1.54l-.14-.49c-.07-.26-.15-.51-.2-.76l-.21-.89c-.12-.49-.22-.94-.32-1.37-.3-1.23-.47-1.94-.48-1.95l-.11-.48c-.06-.25-.12-.6-.2-1.04l-.02-.1s.03.05.03.05c0,0,1.67-.55,3.73-1.79,1.04-.62,2.17-1.41,3.25-2.37.55-.48,1.07-1,1.56-1.57.51-.57,1.01-1.19,1.45-1.85.43-.67.82-1.38,1.15-2.1.34-.73.58-1.48.87-2.24.56-1.51.92-3.03,1.18-4.37.34-1.36.53-2.56.65-3.41.11-.85.14-1.37.14-1.37,0,0-.6.29-1.56.8-.96.52-2.29,1.27-3.75,2.22-1.44.95-3.07,2.09-4.45,3.36-1.41,1.26-2.7,2.65-3.64,4.06-.49.7-.8,1.39-1.07,2.07-.25.68-.43,1.34-.56,1.98-.02.12-.03.23-.05.34-.04-.27-.07-.54-.11-.82l-.24-1.76c-.02-.18-.04-.36-.07-.54-.02-.13-.04-.27-.06-.48-.02-.16-.03-.32-.05-.48l-.03-.34c-.03-.42-.06-.85-.1-1.29l-.07-.79c-.21-2.01-.26-4.14-.31-6.38-.01-.65-.03-1.3-.05-1.95.02-.65.03-1.3.05-1.95.05-2.25.1-4.37.31-6.44l.06-.71c.02-.25.04-.49.06-.72,0,.03.01.06.01.06,0,0,1.75-.09,4.08-.73,2.32-.64,5.32-1.81,7.69-3.9.22-.18.43-.38.64-.59.22-.21.43-.42.64-.63.42-.43.81-.89,1.17-1.35.37-.47.72-.94,1.04-1.43.34-.51.65-.99.94-1.44.53-.82,1-1.64,1.39-2.39.21-.38.39-.75.56-1.1.15-.35.35-.66.49-.95.6-1.18.91-1.95.91-1.95,0,0-1.85.29-4.47,1-.64.17-1.36.36-2.05.6-.7.23-1.44.49-2.16.78-1.48.57-2.98,1.25-4.39,2.04-1.08.6-2,1.27-2.84,1.99-1.26,1.1-2.17,2.29-2.77,3.46-.05.11-.09.21-.14.32.07-.55.17-1.09.27-1.61.06-.31.12-.62.16-.87.1-.52.19-1,.26-1.44l.21-1.17c.08-.43.15-.79.21-1.05l.59-2.46c.08-.36.18-.78.29-1.23l.24-.99c.06-.25.13-.52.21-.79l.13-.46c.16-.49.31-1,.47-1.55.83-3.03,2.08-6.58,3.55-10.17,0,0,0,.02,0,.02,0,0,1.7.4,4.13.41,1.22.01,2.59-.07,4.05-.32,1.47-.24,3-.65,4.48-1.32.73-.34,1.43-.74,2.1-1.19.71-.43,1.4-.92,2.04-1.42.64-.5,1.24-1.03,1.8-1.56.57-.51,1.14-1.02,1.64-1.52.5-.49.95-.98,1.35-1.4.2-.23.38-.43.55-.62.18-.19.34-.36.49-.53.6-.64.93-1.05.93-1.05,0,0-.68-.08-1.79-.15-1.11-.07-2.69-.15-4.42-.09-1.74.05-3.7.22-5.62.53-.49.09-.96.17-1.45.27-.46.12-.91.23-1.36.36-.89.26-1.74.56-2.52.92-.77.35-1.46.75-2.08,1.18-.62.43-1.1.92-1.57,1.4-.07.08-.14.16-.21.25.11-.24.22-.48.33-.71l.13-.28c.11-.23.22-.45.32-.68l.1-.19c.12-.23.24-.45.39-.72l1.93-3.63.65-1.09c.48-.8.94-1.58,1.4-2.34l.3-.5c.2-.34.39-.67.61-.99l1.12-1.67c.55-.82,1.05-1.58,1.5-2.24.3-.44.59-.83.85-1.18.18-.24.34-.46.47-.64.73-.99,1.16-1.57,1.16-1.58.02-.03.15-.19.37-.48l.08-.11c.16-.23.37-.52.66-.87.06.03,1.58.83,3.89,1.47,1.16.33,2.53.61,4,.76,1.49.14,3.02.09,4.65-.15.81-.13,1.62-.33,2.4-.58.4-.12.78-.27,1.17-.42.19-.08.37-.15.57-.23.2-.09.39-.16.57-.23,1.55-.61,2.95-1.37,4.18-2.09,1.27-.67,2.31-1.33,3.05-1.81.36-.25.65-.46.85-.6.22-.14.33-.21.33-.21,0,0-.17-.06-.44-.17-.3-.11-.72-.26-1.24-.43-1.04-.34-2.52-.79-4.22-1.19-.86-.2-1.76-.39-2.71-.56-.47-.08-.95-.16-1.42-.23-.48-.06-.96-.11-1.43-.14-1.93-.17-3.86-.16-5.58.12-1.68.29-3.06.87-4.21,1.56-.09.05-.17.11-.26.17,3.24-3.64,7.08-7.46,10.67-10.59,2.34-2.05,5-4.14,7.91-6.24.09.08.36.34.83.72.56.46,1.4,1.07,2.44,1.69,1.03.63,2.27,1.28,3.63,1.8.7.26,1.41.51,2.16.68.75.19,1.52.32,2.35.43,2.39.29,4.88-.1,7.19-.47.99-.2,1.92-.42,2.77-.65.86-.2,1.64-.4,2.29-.59,1.3-.38,2.1-.7,2.1-.7,0,0-1.48-1.12-3.75-2.49-1.12-.68-2.45-1.42-3.9-2.12-1.44-.67-2.95-1.27-4.48-1.73-1.17-.35-2.35-.62-3.46-.74-1.76-.16-3.32.03-4.66.41.52-.32,1.03-.63,1.49-.92.98-.61,1.81-1.13,2.48-1.51,1.15-.63,1.8-1.01,1.8-1.01l2.05-1.13c.23-.12.47-.25.64-.35l.11-.06c.3-.15.62-.31,1.03-.5.12-.06.24-.12.36-.18.71.04,1.66.06,2.74,0,2.44-.11,6.03-.61,9.22-2.36,1.5-.77,2.99-1.82,4.46-3.17.23-.22.47-.45.71-.67.36-.33.71-.67,1.04-.99.51-.51,1.04-1.07,1.64-1.75.36-.43.71-.83,1.03-1.21.5-.58.94-1.09,1.3-1.55.53-.7.86-1.15.86-1.15l2.21-3.03-3.74-.15s-.7-.03-1.84-.04c-1.03,0-2.66.01-4.61.17-.47.04-.94.08-1.44.14-.48.06-.97.13-1.44.2-.97.15-1.97.34-2.98.58-2.52.6-4.34,1.25-5.7,2.02-1.57.84-2.93,1.93-4.1,3.27-.83,1-1.48,2.12-2.07,3.57-.25.68-.45,1.37-.59,2.01-.19.09-.37.18-.54.26l-2.85,1.58s-.69.37-1.87,1.03c-.77.44-1.74,1.04-2.87,1.74-.15.09-.3.19-.46.28.63-.89,1.22-1.92,1.71-3.15.43-1.08.84-2.27,1.18-3.54.43-1.57.78-3.25,1.1-4.88.33-1.59.62-3.14.85-4.52.46-2.74.7-4.7.7-4.71,0,0-.99.59-2.44,1.61-.72.5-1.56,1.11-2.46,1.81-.88.73-1.8,1.55-2.7,2.43-.57.54-1.11,1.1-1.63,1.67-.14.15-.27.29-.4.44-.12.15-.24.3-.37.46-.24.31-.48.62-.71.93-.91,1.25-1.69,2.54-2.22,3.82-.36.82-.57,1.7-.73,2.51-.15.82-.22,1.61-.24,2.38-.03,1.51.18,2.88.49,4.02.29,1.16.66,2.09.95,2.75.08.18.16.33.22.46-3.04,2.18-5.8,4.36-8.24,6.5-3.48,3.03-7.19,6.68-10.38,10.21.34-1.02.59-2.18.73-3.48.18-1.71.15-3.68.01-5.68-.16-2.03-.33-4.01-.56-5.83-.21-1.82-.44-3.42-.62-4.59-.19-1.15-.29-1.85-.29-1.85,0,0-.14.12-.36.38-.2.25-.52.62-.91,1.07-.76.93-1.8,2.24-2.86,3.77-1.01,1.58-2.05,3.38-2.88,5.24-.8,1.88-1.37,3.85-1.55,5.64-.04.46-.06.89-.06,1.32s.03.87.07,1.28c.09.84.25,1.61.46,2.34.42,1.46,1.02,2.72,1.64,3.75.79,1.3,1.58,2.24,2.06,2.76-.21.26-.39.5-.54.7-.08.11-.14.2-.23.31l-.36.47s-.43.6-1.21,1.65c-.14.2-.3.41-.46.63-.29.39-.62.83-.95,1.32-.32.48-.67,1-1.03,1.56l-.63.95c-.24.34-.47.69-.71,1.05l-.31.46c-.2.3-.39.62-.58.95-.13.22-.26.44-.42.7l-.58.97c-.48.8-.98,1.64-1.52,2.57l-.59,1.1c-.47.88-.95,1.78-1.41,2.66l-.91,1.8c.01-.4.02-.82.02-1.24,0-.76-.07-1.57-.22-2.42-.16-.86-.39-1.76-.66-2.69-.14-.46-.29-.94-.46-1.41-.16-.46-.32-.93-.48-1.41-.65-1.88-1.42-3.78-2.15-5.48-.36-.84-.71-1.65-1.02-2.37-.32-.71-.6-1.36-.82-1.89-.48-1.07-.78-1.71-.78-1.71,0,0-.35.63-.85,1.71-.28.53-.53,1.2-.82,1.94-.28.75-.58,1.57-.87,2.45-.14.44-.29.9-.43,1.35-.13.47-.27.94-.37,1.44-.23.97-.4,1.99-.54,2.99-.13,1.01-.22,2.02-.22,2.99.01.99.1,1.95.27,2.85.36,1.8,1.01,3.33,1.8,4.64.82,1.3,1.76,2.36,2.65,3.2,1.14,1.07,2.18,1.77,2.79,2.13-1.56,3.8-2.87,7.52-3.71,10.64-.17.54-.32,1.06-.46,1.57l-.02.06c-.15.48-.31.97-.4,1.41l-.13.54c-.15.64-.29,1.22-.42,1.74-.28,1.2-.46,1.89-.48,1.96l-.11.48c-.06.24-.12.55-.19.92l-.13.7c-.09.52-.2,1.12-.33,1.81l-.09.48c-.05.27-.1.55-.15.84-.04.19-.07.39-.11.59-.26-1.08-.65-2.22-1.28-3.43-.28-.51-.58-1.06-.93-1.59-.16-.26-.34-.53-.52-.81-.18-.26-.35-.55-.52-.81-.92-1.36-1.95-2.73-2.99-4.04-1.04-1.31-2.08-2.57-2.97-3.63-1.78-2.15-3.12-3.65-3.12-3.65,0,0-.21,1.1-.42,2.81-.13.86-.17,1.88-.2,2.99-.04,1.11-.04,2.32.02,3.55.02.75.12,1.53.23,2.3.11.76.25,1.52.42,2.27.35,1.49.77,2.9,1.47,4.13.88,1.64,1.96,2.94,3.1,3.97,1.15,1.03,2.32,1.79,3.44,2.34,1.42.73,2.63,1.12,3.32,1.31-.02.28-.05.55-.07.84l-.05.63c-.22,2.11-.28,4.35-.34,6.52-.02.75-.04,1.5-.06,2.25v.07s0,.07,0,.07c.03.75.05,1.5.06,2.25.06,2.16.11,4.4.33,6.46l.05.71c.03.45.06.89.11,1.35l.03.29c.02.26.04.51.07.7.02.18.04.37.07.55.02.14.04.27.06.46l.19,1.44c-.2-.34-.42-.68-.67-1.03-.22-.32-.48-.63-.75-.96-.13-.16-.27-.32-.41-.48-.14-.16-.28-.32-.43-.48-2.38-2.57-6.22-5.2-9.24-7.33-1.54-1.06-2.93-1.97-3.95-2.62-1.02-.65-1.64-1.03-1.64-1.03,0,0,.09.7.29,1.88.21,1.16.5,2.78.98,4.56.54,1.79,1.24,3.74,2.1,5.58.21.46.46.92.72,1.36.26.43.52.86.8,1.28.55.82,1.16,1.59,1.79,2.25.65.68,1.29,1.25,2.01,1.74.71.49,1.41.89,2.13,1.24,1.41.68,2.79,1.09,3.99,1.34,1.56.31,2.83.37,3.54.37.03.16.06.33.09.47.07.37.12.68.18.88l.13.57s.19.71.47,1.94l.53,2.17c.11.54.27,1.05.42,1.51.13.51.29,1.04.45,1.54,1.04,3.82,2.73,8.49,4.75,13.12-.04-.04-.07-.07-.11-.11-.26-.26-.54-.51-.84-.76-.61-.5-1.28-.99-2.05-1.44-.77-.46-1.63-.89-2.55-1.31-.87-.43-1.8-.84-2.75-1.24-1.9-.78-3.89-1.5-5.71-2.12-1.77-.63-3.34-1.16-4.49-1.53-1.15-.38-1.86-.59-1.86-.59,0,0,.27.67.77,1.75.25.54.54,1.19.92,1.9.39.7.84,1.45,1.32,2.26.5.79,1.04,1.62,1.63,2.45.14.2.29.4.44.61.17.2.33.4.49.6.34.4.67.79,1.02,1.17.71.77,1.43,1.5,2.18,2.15.38.34.75.65,1.15.94.4.27.8.54,1.22.78,1.64.95,3.27,1.5,4.8,1.8.77.15,1.5.23,2.2.27.72.03,1.4.02,2.03-.02,1.57-.11,2.81-.38,3.5-.57.37.7.74,1.4,1.1,2.08l.67,1.25c.47.79.93,1.57,1.37,2.31l.7,1.18c.15.24.29.48.43.71.18.31.36.61.59.96l.4.6c.2.3.39.59.56.83l.63.95c.38.57.73,1.1,1.06,1.59.36.54.72,1.02,1.04,1.44.14.18.27.36.4.53.76,1.04,1.19,1.63,1.23,1.68,0,.01.11.15.32.43l.18.25c.21.28.46.63.78,1l.44.54c.31.39.67.82,1.04,1.27.27.33.55.68.85,1.04-.99-.53-2.13-.99-3.46-1.34-.6-.16-1.22-.29-1.86-.41-.63-.13-1.27-.24-1.94-.34-3.32-.5-7.09-.69-9.92-.87-2.86-.16-4.91-.2-4.91-.2,0,0,.69.88,1.89,2.18,1.16,1.31,2.94,2.93,4.93,4.5.3.24.62.47.92.7.16.12.32.23.49.35.15.11.33.21.49.32.67.43,1.36.84,2.05,1.22.7.38,1.38.72,2.08,1,.7.3,1.37.56,2.08.73,3.71.92,6.93.35,9.25-.46,1.48-.53,2.59-1.12,3.2-1.49,2.48,2.57,5.13,5.1,7.67,7.31,3.28,2.87,7.14,5.82,11.52,8.79-1.08-.23-2.29-.36-3.65-.34-.93.03-1.88.08-2.87.17-.97.09-2.01.23-3.02.4-1.04.17-2.07.36-3.08.55-.99.21-1.98.4-2.9.59-1.86.39-3.49.77-4.66,1.05-1.19.29-1.9.48-1.9.48,0,0,.61.42,1.64,1.06.5.32,1.14.69,1.84,1.1.34.2.72.41,1.11.63.39.21.81.41,1.25.61.86.41,1.79.81,2.74,1.2.49.19.96.38,1.46.55.25.1.49.18.74.27.26.07.5.15.76.22,2.05.56,4.11.92,5.99.92,3.83-.11,6.77-1.54,8.76-2.93,1-.68,1.77-1.39,2.29-1.91.12-.13.23-.24.33-.34,1.08.61,1.73.95,1.73.95.05.03.71.41,1.83,1.02l.34.19c.19.11.4.22.61.34l.1.05c.26.13.55.27.84.41l1.03.51c.65.32,1.35.67,2.13,1.05,4.64,2.17,9.02,3.95,13.03,5.3-.34.02-.69.06-1.05.11-.21.03-.41.06-.61.1-.2.03-.4.07-.62.1-.41.08-.84.18-1.27.29-1.74.47-3.62,1.24-5.52,2.11-1.86.82-3.74,1.74-5.43,2.6-1.68.86-3.17,1.69-4.22,2.25-1.05.55-1.68.92-1.68.92,0,0,.17.06.49.18.32.1.78.29,1.37.45,1.18.34,2.84.78,4.72,1.16.48.1.94.2,1.44.27.51.07,1.02.13,1.54.18,1.04.11,2.09.2,3.14.22,2.1.09,4.21-.17,6.03-.67,3.64-.99,6.1-3.23,7.63-5.09.96-1.16,1.57-2.2,1.9-2.83.5.14,1.01.28,1.48.4.48.14.98.25,1.46.36.25.05.49.11.78.18.11.02.22.05.34.07,1.44.41,14.87,4.6,17.96,17.26.22.91,1.03,1.53,1.94,1.53.09,0,.18,0,.27-.02,1.01-.14,1.76-1.01,1.73-2.03l-.44-17.31Z"/>
  </g>
</svg>